<svg width="131" height="131" viewBox="0 0 131 131" fill="none" xmlns="http://www.w3.org/2000/svg">
<g clip-path="url(#clip0_8327_190443)">
<mask id="mask0_8327_190443" style="mask-type:alpha" maskUnits="userSpaceOnUse" x="4" y="3" width="126" height="120">
<path d="M4.85386 65.77C3.796 64.0638 3.796 61.9056 4.85386 60.1994L13.0779 46.935C13.5245 46.2147 13.7914 45.3976 13.8559 44.5525L15.0435 29.0128C15.1961 27.0166 16.4633 25.2779 18.317 24.5216L32.8479 18.5925C33.6303 18.2732 34.3248 17.771 34.8731 17.1279L45.0326 5.21237C46.3265 3.69478 48.3645 3.03467 50.3024 3.50542L65.5837 7.2174C66.4035 7.41654 67.2591 7.41655 68.0789 7.21743L83.3622 3.50539C85.3002 3.03466 87.3383 3.69493 88.6322 5.21272L98.7893 17.1276C99.3377 17.7709 100.032 18.2733 100.815 18.5926L115.348 24.5217C117.201 25.278 118.469 27.0167 118.621 29.0129L119.809 44.5528C119.873 45.3977 120.14 46.2147 120.587 46.9349L128.809 60.1997C129.867 61.9058 129.867 64.0636 128.809 65.7697L120.587 79.0325C120.14 79.7526 119.873 80.5695 119.809 81.4143L118.619 96.9566C118.467 98.9528 117.199 100.691 115.345 101.447L100.815 107.375C100.032 107.694 99.3376 108.196 98.7891 108.84L88.6322 120.756C87.3383 122.274 85.3001 122.935 83.3619 122.464L68.0789 118.752C67.2591 118.553 66.4035 118.553 65.5837 118.752L50.3027 122.464C48.3646 122.935 46.3265 122.274 45.0326 120.757L34.8734 108.84C34.3249 108.196 33.6302 107.694 32.8474 107.375L18.3174 101.448C16.4635 100.691 15.1961 98.9526 15.0435 96.9562L13.8559 81.4169C13.7914 80.5718 13.5245 79.7547 13.0779 79.0343L4.85386 65.77Z" fill="#F1F0EE"/>
</mask>
<g mask="url(#mask0_8327_190443)">
<path d="M4.85386 65.77C3.796 64.0638 3.796 61.9056 4.85386 60.1994L13.0779 46.935C13.5245 46.2147 13.7914 45.3976 13.8559 44.5525L15.0435 29.0128C15.1961 27.0166 16.4633 25.2779 18.317 24.5216L32.8479 18.5925C33.6303 18.2732 34.3248 17.771 34.8731 17.1279L45.0326 5.21237C46.3265 3.69478 48.3645 3.03467 50.3024 3.50542L65.5837 7.2174C66.4035 7.41654 67.2591 7.41655 68.0789 7.21743L83.3622 3.50539C85.3002 3.03466 87.3383 3.69493 88.6322 5.21272L98.7893 17.1276C99.3377 17.7709 100.032 18.2733 100.815 18.5926L115.348 24.5217C117.201 25.278 118.469 27.0167 118.621 29.0129L119.809 44.5528C119.873 45.3977 120.14 46.2147 120.587 46.9349L128.809 60.1997C129.867 61.9058 129.867 64.0636 128.809 65.7697L120.587 79.0325C120.14 79.7526 119.873 80.5695 119.809 81.4143L118.619 96.9566C118.467 98.9528 117.199 100.691 115.345 101.447L100.815 107.375C100.032 107.694 99.3376 108.196 98.7891 108.84L88.6322 120.756C87.3383 122.274 85.3001 122.935 83.3619 122.464L68.0789 118.752C67.2591 118.553 66.4035 118.553 65.5837 118.752L50.3027 122.464C48.3646 122.935 46.3265 122.274 45.0326 120.757L34.8734 108.84C34.3249 108.196 33.6302 107.694 32.8474 107.375L18.3174 101.448C16.4635 100.691 15.1961 98.9526 15.0435 96.9562L13.8559 81.4169C13.7914 80.5718 13.5245 79.7547 13.0779 79.0343L4.85386 65.77Z" fill="url(#paint0_linear_8327_190443)"/>
<path opacity="0.5" d="M-78.7572 110.492C-39.388 67.5494 31.9187 43.7587 48.2472 60.647C59.6378 72.4281 50.7553 87.3668 31.8613 107.105C71.1284 78.5643 120.836 65.3634 134.125 79.1085C147.057 92.4839 133.858 109.929 109.544 133.848L171.175 148.248" stroke="url(#paint1_linear_8327_190443)" stroke-width="0.528571"/>
<path opacity="0.5" d="M229.587 22.1748C185.716 60.5061 112.218 76.2761 97.8543 57.6878C87.8344 44.7207 98.3125 30.8544 119.271 13.3236C77.0918 37.353 26.2309 44.9833 14.5407 29.8546C3.16495 15.1328 18.2103 -0.748237 45.0171 -21.8349L-14.6464 -42.9533" stroke="url(#paint2_linear_8327_190443)" stroke-width="0.528571"/>
<path opacity="0.5" d="M187.721 88.7993C148.239 123.172 82.1965 137.251 69.3354 120.543C60.3637 108.887 69.8033 96.4465 88.6631 80.7272C50.731 102.259 5.03601 109.054 -5.43134 95.4548C-15.6172 82.2217 -2.07142 67.9773 22.0485 49.0714L-31.492 30.04" stroke="url(#paint3_linear_8327_190443)" stroke-width="0.528571"/>
<rect x="50.499" y="98.119" width="26.3292" height="17.7242" fill="#F9F9F8"/>
<path d="M76.6233 116.085H50.257C50.184 116.085 50.1243 116.025 50.1243 115.952V98.292C50.1243 98.2194 50.184 98.1599 50.257 98.1599H76.6233C76.6962 98.1599 76.7559 98.2194 76.7559 98.292V115.952C76.7559 116.025 76.6962 116.085 76.6233 116.085ZM50.3896 115.82H76.4906V98.424H50.3896V115.82Z" fill="#26045D"/>
<path d="M93.3227 124.088H33.7722C39.5956 117.492 47.0401 116.048 50.0344 116.151C56.2553 116.125 70.4318 116.089 77.3703 116.151C84.3088 116.213 90.8963 121.468 93.3227 124.088Z" fill="#F9F9F8" stroke="black" stroke-width="0.27179"/>
<path d="M93.1555 124.141H33.7249C33.6718 124.141 33.624 124.11 33.6028 124.062C33.5816 124.015 33.5909 123.958 33.6267 123.92L34.2729 123.226C38.6635 118.52 44.8825 115.82 51.3351 115.82H75.5439C81.9965 115.82 88.2156 118.519 92.6062 123.226L93.2524 123.92C93.2882 123.958 93.2975 124.015 93.2763 124.062C93.2551 124.11 93.2073 124.141 93.1542 124.141H93.1555ZM34.0287 123.877H92.8504L92.4112 123.406C88.071 118.753 81.9235 116.084 75.5439 116.084H51.3351C44.9555 116.084 38.8081 118.753 34.4679 123.406L34.0287 123.877Z" fill="#26045D"/>
<rect x="22.0864" y="43.2065" width="83.0169" height="55.3209" rx="1.06419" fill="white" stroke="#26045D" stroke-width="0.412967"/>
<path d="M101.849 95.8009H44.141C44.068 95.8009 44.0083 95.7415 44.0083 95.6688C44.0083 95.5962 44.068 95.5368 44.141 95.5368H101.717V46.3607H86.8133C86.7403 46.3607 86.6806 46.3013 86.6806 46.2287C86.6806 46.1561 86.7403 46.0966 86.8133 46.0966H101.849C101.922 46.0966 101.982 46.1561 101.982 46.2287V95.6688C101.982 95.7415 101.922 95.8009 101.849 95.8009Z" fill="#D5D3CF"/>
<path d="M59.058 65.2721H28.5471V75.8281H59.058V65.2721Z" fill="#F1EDFF"/>
<path d="M33.729 74.3654C35.8446 74.3654 37.5597 72.6569 37.5597 70.5494C37.5597 68.4419 35.8446 66.7334 33.729 66.7334C31.6133 66.7334 29.8982 68.4419 29.8982 70.5494C29.8982 72.6569 31.6133 74.3654 33.729 74.3654Z" fill="white"/>
<path d="M33.5296 71.7679C33.4344 71.7679 33.3433 71.7267 33.2798 71.6541L32.6282 70.8978C32.5785 70.8402 32.5854 70.7539 32.6434 70.7046C32.7013 70.6553 32.7883 70.6621 32.838 70.7197L33.4896 71.476C33.5048 71.4938 33.5241 71.4952 33.5351 71.4938C33.5448 71.4938 33.5641 71.4883 33.5766 71.4664L34.7638 69.2851C34.7996 69.2193 34.8839 69.1933 34.9501 69.2302C35.0178 69.2659 35.0426 69.3495 35.0053 69.4166L33.8181 71.5979C33.7671 71.6925 33.6718 71.7555 33.5641 71.7679C33.5531 71.7679 33.5407 71.7692 33.5296 71.7692V71.7679Z" fill="#7747FF"/>
<path d="M57.0549 68.8854H39.1366C39.0607 68.8854 38.9985 68.8238 38.9985 68.7484C38.9985 68.673 39.0607 68.6114 39.1366 68.6114H57.0549C57.1309 68.6114 57.193 68.673 57.193 68.7484C57.193 68.8238 57.1309 68.8854 57.0549 68.8854Z" fill="white"/>
<path d="M52.9702 72.4877H39.138C39.0621 72.4877 39 72.4261 39 72.3507C39 72.2753 39.0621 72.2137 39.138 72.2137H52.9702C53.0462 72.2137 53.1083 72.2753 53.1083 72.3507C53.1083 72.4261 53.0462 72.4877 52.9702 72.4877Z" fill="white"/>
<path d="M48.2269 70.7145H39.1366C39.0607 70.7145 38.9985 70.6528 38.9985 70.5774C38.9985 70.5021 39.0607 70.4404 39.1366 70.4404H48.2269C48.3028 70.4404 48.365 70.5021 48.365 70.5774C48.365 70.6528 48.3028 70.7145 48.2269 70.7145Z" fill="white"/>
<path d="M59.058 80.6089H28.5471V91.1649H59.058V80.6089Z" fill="#F1EDFF"/>
<path d="M33.729 89.7027C35.8446 89.7027 37.5597 87.9942 37.5597 85.8867C37.5597 83.7792 35.8446 82.0707 33.729 82.0707C31.6133 82.0707 29.8982 83.7792 29.8982 85.8867C29.8982 87.9942 31.6133 89.7027 33.729 89.7027Z" fill="white"/>
<path d="M33.5296 87.103C33.4344 87.103 33.3433 87.0619 33.2798 86.9892L32.6282 86.2329C32.5785 86.1753 32.5854 86.089 32.6434 86.0397C32.7013 85.9904 32.7883 85.9972 32.838 86.0548L33.4896 86.8111C33.5048 86.8289 33.5241 86.8303 33.5351 86.8289C33.5448 86.8289 33.5641 86.8235 33.5766 86.8015L34.7638 84.6202C34.7996 84.553 34.8839 84.5284 34.9501 84.5654C35.0178 84.601 35.0426 84.6846 35.0053 84.7517L33.8181 86.9331C33.7671 87.0276 33.6718 87.0906 33.5641 87.103C33.5531 87.103 33.5407 87.1043 33.5296 87.1043V87.103Z" fill="#7747FF"/>
<path d="M57.0549 84.2234H39.1366C39.0607 84.2234 38.9985 84.1617 38.9985 84.0864C38.9985 84.011 39.0607 83.9493 39.1366 83.9493H57.0549C57.1309 83.9493 57.193 84.011 57.193 84.0864C57.193 84.1617 57.1309 84.2234 57.0549 84.2234Z" fill="white"/>
<path d="M52.9702 87.8245H39.138C39.0621 87.8245 39 87.7629 39 87.6875C39 87.6121 39.0621 87.5505 39.138 87.5505H52.9702C53.0462 87.5505 53.1083 87.6121 53.1083 87.6875C53.1083 87.7629 53.0462 87.8245 52.9702 87.8245Z" fill="white"/>
<path d="M48.2269 86.0507H39.1366C39.0607 86.0507 38.9985 85.989 38.9985 85.9136C38.9985 85.8383 39.0607 85.7766 39.1366 85.7766H48.2269C48.3028 85.7766 48.365 85.8383 48.365 85.9136C48.365 85.989 48.3028 86.0507 48.2269 86.0507Z" fill="white"/>
<path d="M59.058 49.9342H28.5471V60.4902H59.058V49.9342Z" fill="#F1EDFF"/>
<path d="M33.729 59.028C35.8446 59.028 37.5597 57.3195 37.5597 55.212C37.5597 53.1044 35.8446 51.396 33.729 51.396C31.6133 51.396 29.8982 53.1044 29.8982 55.212C29.8982 57.3195 31.6133 59.028 33.729 59.028Z" fill="white"/>
<path d="M33.5296 56.4296C33.4344 56.4296 33.3433 56.3885 33.2798 56.3145L32.6282 55.5581C32.5785 55.5006 32.5854 55.4142 32.6434 55.3649C32.7013 55.3156 32.7883 55.3224 32.838 55.38L33.4896 56.1363C33.5048 56.1542 33.5241 56.1555 33.5351 56.1542C33.5448 56.1542 33.5641 56.1487 33.5766 56.1268L34.7638 53.9454C34.7996 53.8783 34.8839 53.8536 34.9501 53.8906C35.0178 53.9262 35.0426 54.0098 35.0053 54.0769L33.8181 56.2583C33.7671 56.3528 33.6718 56.4159 33.5641 56.4282C33.5531 56.4282 33.5407 56.4296 33.5296 56.4296Z" fill="#7747FF"/>
<path d="M49.3015 53.4569H39.2904C39.2145 53.4569 39.1523 53.3952 39.1523 53.3199C39.1523 53.2445 39.2145 53.1828 39.2904 53.1828H49.3015C49.3774 53.1828 49.4395 53.2445 49.4395 53.3199C49.4395 53.3952 49.3774 53.4569 49.3015 53.4569Z" fill="white"/>
<path d="M57.2088 55.2841H39.2904C39.2145 55.2841 39.1523 55.2225 39.1523 55.1471C39.1523 55.0718 39.2145 55.0101 39.2904 55.0101H57.2088C57.2847 55.0101 57.3468 55.0718 57.3468 55.1471C57.3468 55.2225 57.2847 55.2841 57.2088 55.2841Z" fill="white"/>
<path d="M51.9575 57.241H39.2904C39.2145 57.241 39.1523 57.1794 39.1523 57.104C39.1523 57.0286 39.2145 56.967 39.2904 56.967H51.9575C52.0334 56.967 52.0955 57.0286 52.0955 57.104C52.0955 57.1794 52.0334 57.241 51.9575 57.241Z" fill="white"/>
<path d="M67.9169 60.9446H64.7402V67.9333H67.9169V60.9446Z" fill="url(#paint4_linear_8327_190443)"/>
<path d="M73.6342 56.4972H70.4575V67.9332H73.6342V56.4972Z" fill="url(#paint5_linear_8327_190443)"/>
<path d="M79.3529 58.721H76.1763V67.9333H79.3529V58.721Z" fill="url(#paint6_linear_8327_190443)"/>
<path d="M85.0714 55.2267H81.8948V67.9334H85.0714V55.2267Z" fill="url(#paint7_linear_8327_190443)"/>
<path d="M90.789 52.3677H87.6123V67.9334H90.789V52.3677Z" fill="url(#paint8_linear_8327_190443)"/>
<path d="M96.5065 51.7323H93.3298V67.9333H96.5065V51.7323Z" fill="url(#paint9_linear_8327_190443)"/>
</g>
<g clip-path="url(#clip1_8327_190443)">
<path d="M17.4262 157.116L30.1993 164.664L24.8377 154.707L26.1261 135.771L24.8377 119.946H14.937L16.7407 136.188L17.4262 157.116Z" fill="#F4F3F1"/>
<path d="M30.1987 164.829C30.1707 164.829 30.1409 164.821 30.1145 164.806L17.3414 157.258C17.2935 157.23 17.2621 157.177 17.2605 157.121L16.575 136.193L14.7729 119.964C14.768 119.918 14.7828 119.87 14.8142 119.835C14.8456 119.801 14.8902 119.781 14.9381 119.781H24.8371C24.923 119.781 24.994 119.847 25.0023 119.933L26.2907 135.758C26.2907 135.758 26.2907 135.775 26.2907 135.783L25.0056 154.673L30.3441 164.587C30.3788 164.653 30.3672 164.732 30.3127 164.783C30.2813 164.813 30.24 164.829 30.1987 164.829ZM17.5892 157.02L29.7726 164.222L24.6934 154.787C24.6785 154.759 24.6719 154.729 24.6736 154.698L25.9603 135.773L24.6852 120.111H15.1231L16.9053 136.17L17.5892 157.02Z" fill="#26045D"/>
<path d="M-0.561523 146.727L10.1006 129.484V121.664H21.6927L18.4404 134.414L5.441 150.433L2.01193 160.917L0.00999099 158.522L-0.561523 146.727Z" fill="#F4F3F1"/>
<path d="M2.01127 161.082C1.96337 161.082 1.91546 161.06 1.88408 161.022L-0.117859 158.626C-0.140984 158.598 -0.154195 158.563 -0.155846 158.528L-0.729004 146.733C-0.729004 146.7 -0.722403 146.667 -0.704233 146.639L9.93479 129.436V121.663C9.93479 121.572 10.0091 121.497 10.1 121.497H21.6921C21.7433 121.497 21.7912 121.521 21.8225 121.562C21.8539 121.601 21.8655 121.654 21.8523 121.704L18.5999 134.455C18.5933 134.479 18.5834 134.5 18.5686 134.518L5.589 150.512L2.16819 160.968C2.15002 161.026 2.10212 161.067 2.04265 161.079C2.03274 161.08 2.02118 161.082 2.01127 161.082ZM0.172853 158.457L1.9485 160.581L5.28507 150.38C5.29168 150.36 5.30158 150.344 5.31315 150.327L18.2894 134.338L21.4806 121.828H10.2668V129.482C10.2668 129.513 10.2585 129.543 10.242 129.57L-0.393701 146.769L0.172853 158.457Z" fill="#26045D"/>
<path d="M8.5076 135.772H6.18192C5.6963 132.249 5.42871 128.428 5.42871 124.434C5.42871 114.788 6.97972 106.146 9.42764 100.307H24.4455C26.8934 106.148 28.4444 114.788 28.4444 124.434C28.4444 128.43 28.1752 132.249 27.6896 135.772H8.50595H8.5076Z" fill="#26045D"/>
<path d="M10.4842 97.0656H23.3266L27.1653 104.538L22.6874 107.66L20.1437 104.538L18.4754 107.66L5.10107 104.538L10.4842 97.0656Z" fill="#26045D"/>
<path d="M22.6564 107.883L20.1721 104.835L18.5616 107.85L4.82227 104.644L10.4003 96.9019H23.4278L27.3788 104.592L22.6564 107.883ZM5.38056 104.434L18.3899 107.47L20.1143 104.242L22.7175 107.437L26.9526 104.487L23.2246 97.2322H10.5688L5.38056 104.436V104.434Z" fill="white"/>
<path d="M15.488 79.3676L20.6349 80.7353C23.5651 81.5149 26.236 83.0577 28.375 85.2083L34.5047 92.2184C37.2863 95.8688 32.4252 98.7263 29.7394 97.9269C29.6684 97.9054 28.8623 97.2463 28.8094 97.1935L23.8954 92.2514L23.3289 97.0663H10.4881L6.64771 81.9262L15.4896 79.3693L15.488 79.3676Z" fill="#26045D"/>
<path d="M18.9071 91.1201L18.2976 80.1144L15.488 79.2406L11.8359 80.4249L18.9071 91.1201Z" fill="white"/>
<path d="M18.9075 91.2852C18.853 91.2852 18.8002 91.2588 18.7704 91.2109L11.6992 80.5157C11.6711 80.4727 11.6645 80.4182 11.681 80.3703C11.6976 80.3224 11.7372 80.2844 11.7868 80.2679L15.4388 79.0836C15.4718 79.0737 15.5065 79.072 15.5396 79.0836L18.3492 79.959C18.4153 79.9789 18.4615 80.0383 18.4648 80.1077L19.0743 91.1134C19.0776 91.1877 19.0314 91.2555 18.962 91.2786C18.9455 91.2835 18.9273 91.2868 18.9108 91.2868L18.9075 91.2852ZM12.094 80.514L18.7077 90.5204L18.1378 80.2398L15.4884 79.4156L12.094 80.5157V80.514Z" fill="#26045D"/>
<path d="M23.8811 92.4232C23.8233 92.4232 23.7671 92.3935 23.7374 92.339C23.6928 92.2597 23.7209 92.159 23.8001 92.1144C24.6392 91.637 25.1612 90.7434 25.1612 89.7804C25.1612 88.7002 24.517 87.7289 23.521 87.3077C23.4714 87.2863 23.4351 87.2433 23.4235 87.1905L22.8206 84.4485C22.8008 84.3593 22.857 84.2718 22.9462 84.252C23.0354 84.2321 23.1229 84.2883 23.1427 84.3775L23.7275 87.0368C24.8011 87.5274 25.4915 88.5945 25.4915 89.7788C25.4915 90.8607 24.9068 91.8649 23.9637 92.4001C23.9372 92.415 23.9092 92.4216 23.8827 92.4216L23.8811 92.4232Z" fill="white"/>
<path d="M20.1441 104.703C20.1359 104.703 20.1276 104.703 20.1193 104.701C20.0285 104.688 19.9674 104.602 19.9806 104.513L21.117 97.1903L18.7533 91.1812C18.7203 91.0969 18.7616 91.0011 18.8458 90.9665C18.9301 90.9334 19.0275 90.9747 19.0606 91.059L21.4408 97.1094C21.4507 97.1358 21.454 97.1655 21.4507 97.1953L20.3076 104.562C20.2944 104.643 20.2251 104.703 20.1441 104.703Z" fill="white"/>
<path d="M18.908 95.0266C18.8684 95.0266 18.8271 95.0117 18.7957 94.982L12.9815 89.6055C12.9253 89.5543 12.9121 89.4701 12.9485 89.404L14.103 87.3261L10.925 87.2319C10.8441 87.2303 10.7764 87.1675 10.7665 87.0866L10.005 80.9255C9.99344 80.8346 10.0579 80.752 10.1487 80.7405C10.2396 80.7289 10.3221 80.7933 10.3337 80.8842L11.077 86.9049L14.3855 87.004C14.4433 87.0056 14.4962 87.037 14.5242 87.0882C14.5523 87.1378 14.5523 87.1989 14.5242 87.2501L13.3019 89.4519L19.0203 94.7392C19.0881 94.802 19.0914 94.906 19.0303 94.9721C18.9972 95.0068 18.9526 95.0249 18.9097 95.0249L18.908 95.0266Z" fill="white"/>
<path d="M20.7705 94.7888C20.7623 94.7888 20.7524 94.7888 20.7441 94.7871C20.6533 94.7722 20.5921 94.688 20.607 94.5972L21.6707 87.9785L19.4755 86.9346C19.4177 86.9065 19.3797 86.8471 19.3814 86.7827C19.3814 86.7182 19.421 86.6604 19.4805 86.634L21.6509 85.6975L20.0933 80.681C20.0669 80.5935 20.1148 80.501 20.2023 80.4746C20.2899 80.4481 20.3824 80.496 20.4088 80.5836L22.0094 85.742C22.0341 85.823 21.9945 85.9089 21.9169 85.9419L19.9446 86.7926L21.9218 87.7324C21.9879 87.7638 22.0259 87.8348 22.0143 87.9075L20.9307 94.6484C20.9175 94.7293 20.8482 94.7871 20.7672 94.7871L20.7705 94.7888Z" fill="white"/>
<path d="M14.9356 117.788L17.7717 117.42L15.6575 101.204L-6.66284 104.11L-4.54858 120.325L14.9356 117.788Z" fill="#B9BEC6"/>
<path d="M10.413 116.57L8.9281 116.789L9.25351 118.997L8.84717 119.056L8.94132 119.691C9.01895 120.213 9.50457 120.573 10.0265 120.497C10.5485 120.421 10.9102 119.935 10.8326 119.413L10.4147 116.57H10.413Z" fill="#F4F3F1"/>
<path d="M8.97896 117.117L7.49402 117.336L7.81942 119.544L7.41309 119.603L7.51053 120.271C7.58486 120.774 8.05397 121.123 8.55941 121.049L8.62383 121.039C9.12927 120.964 9.47779 120.495 9.40346 119.992L8.98061 117.116L8.97896 117.117Z" fill="#F4F3F1"/>
<path d="M7.43453 116.921L5.9496 117.139L6.27499 119.347L5.86865 119.407L5.96611 120.074C6.04044 120.578 6.50954 120.926 7.01498 120.852L7.0794 120.842C7.58484 120.768 7.93337 120.298 7.85904 119.795L7.43619 116.919L7.43453 116.921Z" fill="#F4F3F1"/>
<path d="M5.90563 116.805L4.42069 117.023L4.74609 119.231L3.71704 119.382L3.79303 119.899C3.87892 120.487 4.42564 120.891 5.01367 120.805L5.39854 120.749C5.98657 120.663 6.39455 120.117 6.30701 119.529L5.90563 116.805Z" fill="#F4F3F1"/>
<path d="M9.66376 113.161L8.49927 114.553C8.49927 114.553 10.6647 115.678 11.1867 115.962C11.2775 116 11.7962 116.385 12.7592 116.416C12.779 116.411 13.666 116.534 14.1186 115.706L14.1301 115.685C14.3201 115.338 14.0756 114.913 13.6809 114.902C13.2134 114.888 12.8731 114.907 12.4106 114.654L9.66376 113.157V113.161Z" fill="#F4F3F1"/>
<path d="M7.5784 108.993L9.27641 111.879C9.66953 112.546 9.92886 113.281 10.0412 114.048L10.5565 117.553L4.62835 118.425L3.79916 112.791L1.56763 108.993H7.5784Z" fill="#F4F3F1"/>
<path d="M8.42383 121.224C8.02245 121.224 7.64915 121.003 7.45919 120.641C7.41625 120.56 7.44764 120.461 7.52858 120.418C7.60951 120.375 7.70861 120.406 7.75156 120.487C7.90022 120.773 8.2157 120.932 8.5345 120.885L8.59892 120.876C8.79878 120.846 8.97717 120.74 9.09775 120.578C9.21833 120.416 9.26953 120.217 9.2398 120.017L8.83017 117.238C8.81695 117.148 8.87972 117.065 8.96891 117.05C9.05811 117.037 9.14235 117.1 9.15556 117.189L9.5652 119.967C9.60814 120.255 9.53547 120.542 9.36203 120.775C9.1886 121.008 8.93422 121.16 8.64681 121.203L8.5824 121.213C8.52955 121.221 8.47669 121.224 8.42383 121.224Z" fill="#26045D"/>
<path d="M6.88142 121.027C6.47839 121.027 6.10344 120.804 5.91514 120.439C5.87385 120.358 5.90523 120.259 5.98616 120.216C6.0671 120.174 6.16621 120.206 6.20916 120.287C6.35782 120.574 6.6733 120.736 6.99375 120.688L7.05816 120.678C7.25802 120.649 7.43642 120.543 7.55699 120.381C7.67757 120.219 7.72878 120.019 7.69904 119.819L7.29272 117.061C7.2795 116.97 7.34226 116.887 7.43146 116.873C7.52065 116.859 7.60489 116.922 7.61811 117.011L8.02445 119.77C8.06739 120.057 7.99471 120.345 7.82127 120.577C7.64784 120.81 7.39347 120.962 7.10607 121.005L7.04164 121.015C6.98879 121.023 6.93593 121.027 6.88307 121.027H6.88142Z" fill="#26045D"/>
<path d="M9.88528 120.673C9.67551 120.673 9.46904 120.615 9.29065 120.503C9.21302 120.455 9.18989 120.352 9.23779 120.275C9.28569 120.197 9.3881 120.174 9.46574 120.222C9.62431 120.321 9.81426 120.36 9.99925 120.334C10.209 120.303 10.3924 120.194 10.5179 120.023C10.6434 119.855 10.6963 119.645 10.6649 119.437L9.93649 114.487C9.92327 114.396 9.98604 114.313 10.0752 114.298C10.1644 114.285 10.2487 114.348 10.2619 114.437L10.9903 119.388C11.0333 119.683 10.9589 119.979 10.7805 120.218C10.6022 120.458 10.3412 120.615 10.0439 120.658C9.98935 120.666 9.93484 120.669 9.88033 120.669L9.88528 120.673Z" fill="#26045D"/>
<path d="M5.04553 121.051C4.76638 121.051 4.48558 120.983 4.25103 120.866C3.73237 120.607 3.6597 120.115 3.58867 119.637C3.57711 119.563 3.5672 119.487 3.55399 119.409L3.5259 119.243L4.55496 119.094C4.42612 118.326 4.35014 117.545 4.27581 116.788C4.12385 115.22 3.98014 113.739 3.40367 112.343C3.22859 111.993 3.02211 111.696 2.80243 111.38C2.57118 111.046 2.33168 110.701 2.13017 110.28C2.09053 110.197 2.12521 110.098 2.2078 110.06C2.29038 110.021 2.38949 110.055 2.42748 110.138C2.61909 110.536 2.85033 110.87 3.07332 111.193C3.2897 111.504 3.51269 111.826 3.70264 112.208C4.30223 113.661 4.4542 115.235 4.60286 116.758C4.68049 117.564 4.76143 118.397 4.90678 119.206L4.93652 119.375L3.90416 119.525C3.90747 119.548 3.91077 119.57 3.91407 119.593C3.99005 120.103 4.04951 120.4 4.39638 120.576C4.86218 120.808 5.53445 120.794 5.8549 120.369C6.40163 119.548 6.16708 118.631 5.93914 117.743C5.87142 117.478 5.80203 117.206 5.75578 116.945C5.74092 116.856 5.80038 116.77 5.88958 116.753C5.98042 116.737 6.06467 116.798 6.08119 116.887C6.12413 117.135 6.1902 117.389 6.25793 117.66C6.49248 118.574 6.75676 119.608 6.12248 120.559C5.8582 120.911 5.45186 121.056 5.04222 121.056L5.04553 121.051Z" fill="#26045D"/>
<path d="M12.6128 116.537C11.7291 116.537 10.9165 116.101 10.1567 115.603C10.0807 115.554 10.0592 115.451 10.1088 115.375C10.1583 115.3 10.2607 115.278 10.3367 115.328C11.407 116.03 12.332 116.426 13.3578 116.084L13.3826 116.076H13.409C13.4998 116.076 13.7608 115.965 13.9194 115.764C14.0168 115.64 14.0499 115.513 14.0168 115.385C13.9012 115.04 13.5808 115.002 13.0671 114.982C12.8011 114.972 12.5269 114.961 12.3106 114.854C12.0512 114.705 11.7952 114.569 11.5491 114.439C10.8983 114.094 10.2838 113.767 9.71894 113.298L9.676 113.261L9.66443 113.207C9.50917 112.505 9.15073 111.948 8.77413 111.357C8.55279 111.012 8.32485 110.655 8.12829 110.253C8.08865 110.171 8.12168 110.072 8.20427 110.032C8.28686 109.992 8.38431 110.025 8.42561 110.108C8.61391 110.491 8.8369 110.841 9.05328 111.178C9.43814 111.78 9.80153 112.348 9.97497 113.078C10.5019 113.507 11.0866 113.818 11.706 114.145C11.9554 114.277 12.2131 114.414 12.4691 114.56C12.6128 114.631 12.8408 114.64 13.0819 114.649C13.551 114.667 14.1358 114.688 14.3356 115.29C14.3967 115.529 14.3406 115.757 14.1804 115.964C13.9788 116.223 13.6485 116.386 13.4404 116.401C13.1579 116.492 12.8821 116.533 12.6128 116.533V116.537Z" fill="#26045D"/>
<path d="M46.5046 80.6333C46.46 81.0495 46.7623 81.4212 47.1785 81.4658L49.5488 81.7086L49.4447 82.6931L50.0179 82.7542C50.933 82.8516 51.5045 82.2454 51.4946 82.2504C52.1322 81.669 51.9934 80.445 51.0404 80.3442L47.3387 79.961C46.9225 79.9164 46.5509 80.2187 46.5063 80.6349L46.5046 80.6333Z" fill="#F4F3F1"/>
<path d="M47.6308 82.256C47.5862 82.6723 47.8885 83.0439 48.3048 83.0885L49.3966 83.2008L49.2925 84.1853L49.8657 84.2464C50.7808 84.3438 51.3523 83.7376 51.3424 83.7426C51.9799 83.1612 51.8412 81.9372 50.8881 81.8365L48.465 81.5837C48.0487 81.5391 47.6771 81.8414 47.6325 82.2577L47.6308 82.256Z" fill="#F4F3F1"/>
<path d="M45.2251 76.3272L47.2898 74.6011C47.782 74.1898 48.0942 73.6018 48.1586 72.9626L48.1768 72.7858C48.2263 72.2903 48.669 71.9302 49.1645 71.9814L49.2719 71.993C49.7674 72.0425 50.1275 72.4852 50.0763 72.9807L49.9624 74.1056C49.8979 74.7448 49.5841 75.3345 49.0919 75.7458L46.6952 77.7461L50.5867 78.1425L49.9624 84.2805L46.2855 83.9072L44.2819 86.3105L39.5728 82.48L42.7574 78.7685C43.5122 77.8898 44.3381 77.0738 45.2267 76.3305L45.2251 76.3272Z" fill="#F4F3F1"/>
<path d="M40.4812 81.4201L45.1574 85.2571L44.2819 86.3077L39.5728 82.4772L40.4812 81.4201Z" fill="#26045D"/>
<path d="M45.9138 79.056C45.8692 79.4723 46.1715 79.8439 46.5877 79.8885L49.7029 80.2057L49.5989 81.1901L50.172 81.2512C51.0871 81.3487 51.6586 80.7425 51.6487 80.7474C52.2863 80.166 52.1476 78.9421 51.1945 78.8413L46.7496 78.3821C46.3333 78.3375 45.9617 78.6398 45.9171 79.056H45.9138Z" fill="#F4F3F1"/>
<path d="M46.6672 77.6074C46.6226 78.0236 46.9249 78.3953 47.3411 78.4399L49.8948 78.7009L49.7907 79.6853L50.3639 79.7464C51.2789 79.8439 51.8504 79.2377 51.8405 79.2426C52.4781 78.6596 52.3394 77.4373 51.3863 77.3365L47.503 76.9351C47.0868 76.8905 46.7151 77.1928 46.6705 77.609L46.6672 77.6074Z" fill="#F4F3F1"/>
<path d="M51.8398 79.4062C51.7952 79.4062 51.7506 79.3881 51.7175 79.3517C51.6564 79.284 51.6614 79.1799 51.7275 79.1188C52.0215 78.8496 52.1404 78.3987 52.0149 78.0187C51.9571 77.8437 51.7968 77.5447 51.3657 77.4984L47.527 77.102C47.3701 77.0855 47.2148 77.1301 47.0926 77.2309C46.9704 77.33 46.8927 77.472 46.8762 77.6289C46.8448 77.9279 47.0414 78.2021 47.3338 78.2682C47.423 78.288 47.4791 78.3772 47.4593 78.4647C47.4395 78.5539 47.3503 78.6101 47.2627 78.5903C46.8069 78.4879 46.4996 78.06 46.5492 77.5942C46.5756 77.3498 46.6945 77.1285 46.8861 76.9748C47.0777 76.8196 47.3173 76.7485 47.5634 76.775L51.4021 77.1714C51.8513 77.2193 52.19 77.4902 52.3304 77.9163C52.4939 78.4152 52.3386 79.0098 51.9521 79.3633C51.9207 79.393 51.8811 79.4062 51.8414 79.4062H51.8398Z" fill="#26045D"/>
<path d="M51.6993 80.8615C51.658 80.8615 51.6167 80.8466 51.5854 80.8152C51.5193 80.7525 51.5176 80.6468 51.5804 80.5823C51.848 80.3032 51.9438 79.8572 51.8133 79.4988C51.7522 79.3336 51.5903 79.0512 51.1741 79.0066L46.7292 78.5474C46.4054 78.5127 46.1131 78.7489 46.0784 79.0743C46.0453 79.3898 46.2634 79.6739 46.5755 79.7218L47.3535 79.8011C47.4444 79.811 47.5105 79.8919 47.5005 79.9828C47.4906 80.0736 47.4097 80.1397 47.3188 80.1298L46.5326 80.0505C46.0371 79.9745 45.6968 79.5318 45.748 79.0412C45.8009 78.5358 46.2551 78.1675 46.7622 78.2203L51.2071 78.6795C51.6415 78.7258 51.9752 78.9834 52.1222 79.3865C52.2973 79.8655 52.175 80.4386 51.8182 80.8119C51.7852 80.845 51.7423 80.8631 51.6993 80.8631V80.8615Z" fill="#26045D"/>
<path d="M51.545 82.363C51.5037 82.363 51.4624 82.3482 51.431 82.3168C51.3649 82.254 51.3633 82.1483 51.426 82.0839C51.6936 81.8047 51.7911 81.3588 51.6589 81.0003C51.5978 80.8351 51.436 80.551 51.0197 80.5081L47.3181 80.1249C46.9927 80.0902 46.702 80.3264 46.6673 80.6518C46.6508 80.8087 46.697 80.964 46.7961 81.0862C46.8953 81.2084 47.0373 81.2861 47.1942 81.3026L48.3174 81.4182C48.4083 81.4281 48.4743 81.5091 48.4644 81.5999C48.4545 81.6908 48.3752 81.7568 48.2827 81.7469L47.1579 81.6313C46.9118 81.6049 46.6921 81.4859 46.5368 81.2943C46.3816 81.1027 46.3105 80.8632 46.337 80.6171C46.3898 80.1117 46.844 79.7433 47.3511 79.7962L51.0527 80.1794C51.4872 80.2256 51.8208 80.4833 51.9678 80.888C52.1429 81.3687 52.0207 81.9402 51.6622 82.3135C51.6292 82.3465 51.5863 82.3647 51.5433 82.3647L51.545 82.363Z" fill="#26045D"/>
<path d="M44.2811 86.4727C44.2448 86.4727 44.2068 86.4611 44.177 86.4363L39.4679 82.6059C39.4332 82.5778 39.4117 82.5365 39.4067 82.4919C39.4034 82.4473 39.4167 82.4027 39.4464 82.3697L42.631 78.6582C43.3891 77.7745 44.2266 76.9469 45.1202 76.2003L47.1849 74.4742C47.6474 74.0877 47.9348 73.5443 47.9959 72.9464L48.0141 72.7696C48.0736 72.1849 48.5972 71.7571 49.1819 71.8166L49.2892 71.8281C49.5734 71.8562 49.8277 71.9949 50.0078 72.2146C50.1878 72.436 50.2704 72.7135 50.2423 72.9959L50.1283 74.1208C50.059 74.8079 49.7286 75.429 49.1984 75.8716L47.8225 77.0477C47.7531 77.1072 47.649 77.0989 47.5896 77.0295C47.5301 76.9602 47.5384 76.8561 47.6078 76.7966L48.9853 75.6189C49.4495 75.2308 49.7385 74.6873 49.7996 74.0877L49.9136 72.9629C49.9334 72.768 49.8756 72.5764 49.7518 72.4228C49.6279 72.2708 49.4511 72.175 49.2562 72.1552L49.1489 72.1436C48.7442 72.1023 48.3841 72.398 48.3428 72.801L48.3246 72.9777C48.2552 73.6632 47.9249 74.2843 47.3963 74.727L45.3316 76.4531C44.4529 77.1881 43.6287 78.0024 42.8821 78.8729L39.8081 82.4556L44.2596 86.0762L46.1905 83.7737C46.2252 83.7324 46.2797 83.7093 46.3342 83.7159L49.8822 84.0809C50.6701 84.1635 51.1756 83.6762 51.2152 83.6366C51.2202 83.6316 51.2251 83.625 51.2301 83.6201C51.5241 83.3508 51.643 82.8999 51.5175 82.52C51.4597 82.3449 51.2994 82.0459 50.8683 81.9997L48.4452 81.747C48.1215 81.7123 47.8291 81.9485 47.7944 82.2739C47.7597 82.5976 47.9959 82.89 48.3213 82.9247L49.3338 83.0287C49.4247 83.0386 49.4908 83.1196 49.4809 83.2104C49.4709 83.3013 49.39 83.3673 49.2992 83.3574L48.2866 83.2534C47.7812 83.2005 47.4128 82.7446 47.4657 82.2392C47.5186 81.7338 47.9745 81.3654 48.4799 81.4183L50.903 81.671C51.3523 81.7189 51.6909 81.9898 51.8313 82.4159C51.9948 82.9148 51.8396 83.5094 51.4531 83.8629L51.4498 83.8596C51.2895 84.0264 50.6982 84.4988 49.8475 84.408L46.3871 84.0528L44.4083 86.4132C44.3752 86.4528 44.329 86.4727 44.2811 86.4727Z" fill="#26045D"/>
<path d="M-0.362531 104.505C-1.11904 101.206 -1.13061 97.7788 -0.397222 94.4752L1.03816 88.0069C1.6774 85.1197 3.81809 82.7989 6.64591 81.9251L10.5309 82.8105L6.84577 99.4487L9.40105 110.596L1.44945 112.417L-0.364185 104.505H-0.362531Z" fill="#26045D"/>
<path d="M45.242 86.6461L34.2297 96.6905L27.7383 91.9169L40.153 80.9079L45.242 86.6461Z" fill="#26045D"/>
<path d="M13.5195 80.0682L17.203 82.8861V74.657H13.5195V80.0682Z" fill="#F4F3F1"/>
<path d="M17.2016 83.0512C17.1653 83.0512 17.1306 83.0397 17.1009 83.0165L13.4174 80.1986C13.3762 80.1673 13.353 80.1194 13.353 80.0681V74.657C13.353 74.5661 13.4274 74.4918 13.5182 74.4918H17.2016C17.2925 74.4918 17.3668 74.5661 17.3668 74.657V82.8861C17.3668 82.9488 17.3305 83.0066 17.2743 83.0347C17.2512 83.0463 17.2264 83.0512 17.2016 83.0512ZM13.6834 79.9856L17.0365 82.5507V74.8205H13.6834V79.9839V79.9856Z" fill="#26045D"/>
<path d="M13.5195 76.0524V74.6567H17.203V77.7372C16.871 77.8033 16.2086 77.8859 15.4471 77.6365C14.2562 77.245 13.6715 76.3134 13.5195 76.0524Z" fill="#26045D"/>
<path d="M13.3057 75.3568L15.5273 73.2971L18.4691 72.4514L18.3386 71.7989C17.8959 69.5938 15.4348 68.4574 13.4676 69.5459C11.5086 70.6311 11.1617 73.302 12.7788 74.8514L13.3073 75.3568H13.3057Z" fill="#26045D"/>
<path d="M15.8585 76.8415C17.4951 76.8415 18.8218 75.3765 18.8218 73.5694C18.8218 71.7622 17.4951 70.2972 15.8585 70.2972C14.222 70.2972 12.8953 71.7622 12.8953 73.5694C12.8953 75.3765 14.222 76.8415 15.8585 76.8415Z" fill="#F4F3F1"/>
<path d="M15.8584 77.0067C14.134 77.0067 12.73 75.4656 12.73 73.5693C12.73 71.6731 14.134 70.132 15.8584 70.132C17.5829 70.132 18.9869 71.6731 18.9869 73.5693C18.9869 75.4656 17.5829 77.0067 15.8584 77.0067ZM15.8584 70.464C14.3157 70.464 13.0603 71.8581 13.0603 73.571C13.0603 75.2839 14.3157 76.678 15.8584 76.678C17.4012 76.678 18.6565 75.2839 18.6565 73.571C18.6565 71.8581 17.4012 70.464 15.8584 70.464Z" fill="#26045D"/>
<path d="M17.4646 75.1106C17.1491 75.3732 16.7494 75.5433 16.3067 75.5664C15.3206 75.6193 14.465 74.9404 14.2651 74.0039L17.4646 75.1106Z" fill="white"/>
<path d="M9.91294 71.642C12.3012 71.642 14.2373 69.7074 14.2373 67.321C14.2373 64.9346 12.3012 63 9.91294 63C7.52469 63 5.58862 64.9346 5.58862 67.321C5.58862 69.7074 7.52469 71.642 9.91294 71.642Z" fill="#26045D"/>
</g>
<path d="M96.1353 123.96H84.2842C84.312 120.83 84.5674 117.352 85.0769 113.708C86.8848 100.784 91.1908 90.7014 94.6953 91.1858C98.1998 91.6714 99.5753 102.541 97.7687 115.466C97.3464 118.485 96.7876 121.349 96.1353 123.96Z" fill="url(#paint10_linear_8327_190443)"/>
<path d="M98.643 123.961C97.9754 121.639 97.3749 119.127 96.8755 116.49C94.4444 103.668 95.2927 92.7447 98.7707 92.0918C102.247 91.4388 107.036 101.305 109.468 114.126C110.126 117.6 110.543 120.932 110.733 123.961H98.643Z" fill="url(#paint11_linear_8327_190443)"/>
<path d="M110.732 124.086C110.666 124.086 110.61 124.035 110.605 123.968C110.409 120.841 109.983 117.537 109.341 114.149C108.168 107.958 106.412 102.262 104.395 98.1093C102.43 94.0632 100.389 91.9144 98.7919 92.2138C98.7237 92.2264 98.6566 92.1824 98.644 92.1132C98.6314 92.0453 98.6756 91.9786 98.7451 91.966C100.487 91.6389 102.576 93.7814 104.624 97.9998C106.649 102.172 108.413 107.89 109.59 114.102C110.235 117.5 110.661 120.815 110.858 123.953C110.862 124.022 110.81 124.083 110.739 124.086C110.737 124.086 110.734 124.086 110.732 124.086Z" fill="#26045D"/>
<path d="M98.6426 124.087C98.587 124.087 98.5364 124.05 98.5212 123.995C97.836 121.613 97.2405 119.096 96.7513 116.513C96.458 114.964 96.2064 113.409 96.0029 111.888H94.8208C94.7512 111.888 94.6943 111.832 94.6943 111.762C94.6943 111.693 94.7512 111.637 94.8208 111.637H96.1128C96.176 111.637 96.2304 111.683 96.238 111.746C96.4428 113.297 96.6994 114.885 96.9991 116.466C97.4871 119.043 98.0813 121.553 98.764 123.927C98.783 123.994 98.7437 124.063 98.6767 124.083C98.6654 124.087 98.654 124.088 98.6413 124.088L98.6426 124.087Z" fill="white"/>
<path d="M98.6655 77.7671H94.1306V82.675H98.6655V77.7671Z" fill="#D5D3CF"/>
<path d="M98.6655 82.8005H94.1306C94.061 82.8005 94.0042 82.7439 94.0042 82.6747V77.7669C94.0042 77.6977 94.061 77.6411 94.1306 77.6411H98.6655C98.735 77.6411 98.7919 77.6977 98.7919 77.7669V82.6747C98.7919 82.7439 98.735 82.8005 98.6655 82.8005ZM94.257 82.5489H98.539V77.8927H94.257V82.5489Z" fill="#26045D"/>
<path d="M98.666 79.4782V77.7672H94.1311V81.544C94.5407 81.6257 95.3562 81.7276 96.293 81.4194C97.7595 80.9388 98.4789 79.7977 98.666 79.4782Z" fill="#26045D"/>
<path d="M99.4286 76.5333L95.8052 75.6426L92.1338 76.483V70.3963H99.3957L99.4286 76.5333Z" fill="#26045D"/>
<path d="M95.7812 80.446C97.7956 80.446 99.4286 78.6498 99.4286 76.4339C99.4286 74.2181 97.7956 72.4219 95.7812 72.4219C93.7668 72.4219 92.1338 74.2181 92.1338 76.4339C92.1338 78.6498 93.7668 80.446 95.7812 80.446Z" fill="#D5D3CF"/>
<path d="M95.7821 80.5716C93.7011 80.5716 92.0083 78.7159 92.0083 76.4337C92.0083 74.1515 93.7011 72.2958 95.7821 72.2958C97.8631 72.2958 99.5559 74.1515 99.5559 76.4337C99.5559 78.7159 97.8631 80.5716 95.7821 80.5716ZM95.7821 72.5487C93.8402 72.5487 92.2612 74.2924 92.2612 76.4349C92.2612 78.5775 93.8402 80.3212 95.7821 80.3212C97.724 80.3212 99.3031 78.5775 99.3031 76.4349C99.3031 74.2924 97.724 72.5487 95.7821 72.5487Z" fill="#26045D"/>
<path d="M94.1716 78.5873C94.3891 78.8264 94.6824 79.0025 95.025 79.0692C95.7899 79.2189 96.532 78.7861 96.7924 78.0803L94.1716 78.5873Z" fill="white"/>
<path d="M76.3412 84.6341L75.728 82.4098C75.728 82.4098 76.7243 81.2763 75.8595 79.8697C75.6585 79.5439 75.1869 78.9085 74.7824 78.3776C74.3222 77.7737 73.9455 77.112 73.6597 76.4099L73.3323 75.6048C73.1679 75.1996 72.7116 74.9971 72.2994 75.143L72.2109 75.1745C71.7924 75.3229 71.5699 75.7771 71.709 76.1973L72.6091 78.9035H71.2197C70.508 78.9035 69.8088 78.706 69.2032 78.3336L66.7266 76.8754C66.3144 76.6326 65.7872 76.7308 65.4889 77.1032L65.4383 77.1673L64.188 76.2552C63.8112 75.9985 63.2979 76.0816 63.0236 76.4452C62.753 76.8012 62.8061 77.3044 63.145 77.5976L71.47 84.8052L72.4195 86.4433L76.3412 84.6354V84.6341Z" fill="#D5D3CF"/>
<path d="M71.6493 85.0969C71.6202 85.0969 71.5899 85.0868 71.5659 85.0654L63.0612 77.6905C62.6744 77.3558 62.6137 76.7746 62.9222 76.3669C63.2382 75.9492 63.8248 75.8536 64.2585 76.1493L65.414 76.9935C65.7528 76.5997 66.3369 76.5003 66.7895 76.767L69.2662 78.2251C69.8553 78.5875 70.5292 78.7774 71.2182 78.7774H72.4332L71.5873 76.2361C71.4268 75.7555 71.6872 75.2258 72.1664 75.0547L72.2549 75.0233C72.7328 74.8534 73.2574 75.0874 73.4484 75.5555L73.7758 76.3606C74.0577 77.0539 74.4294 77.7055 74.882 78.3006C75.4345 79.0265 75.7986 79.531 75.9655 79.8028C76.8694 81.271 75.8327 82.4788 75.8214 82.4913C75.7746 82.5442 75.6949 82.5492 75.6431 82.5027C75.59 82.4574 75.5849 82.3781 75.6305 82.3253C75.6684 82.2812 76.5534 81.2421 75.7493 79.9336C75.5887 79.6732 75.2196 79.1612 74.6797 78.4516C74.2145 77.8402 73.8314 77.1683 73.5406 76.455L73.2132 75.6498C73.0741 75.3064 72.6898 75.1353 72.3396 75.2598L72.2511 75.2913C71.8996 75.4158 71.71 75.8033 71.8276 76.1556L72.7277 78.8617C72.7403 78.8995 72.734 78.9423 72.71 78.975C72.686 79.0077 72.6481 79.0265 72.6076 79.0265H71.2182C70.4824 79.0265 69.7618 78.8227 69.1347 78.4378L66.6593 76.9809C66.304 76.772 65.8426 76.8563 65.5859 77.1784L65.5354 77.2426C65.4937 77.2954 65.4165 77.3055 65.3622 77.2652L64.1118 76.3531C63.7932 76.1367 63.3583 76.2072 63.1232 76.5166C62.8943 76.8186 62.9399 77.2501 63.2268 77.498L71.7315 84.8729C71.7846 84.9182 71.7897 84.9975 71.7441 85.0503C71.7189 85.0793 71.6835 85.0931 71.6493 85.0931V85.0969Z" fill="#26045D"/>
<path d="M70.8129 81.5762L70.2199 80.9962C69.8432 80.6276 69.5815 80.1583 69.4677 79.645L68.8432 76.8344C68.7534 76.4306 68.3539 76.1727 67.9468 76.2557C67.5587 76.335 67.297 76.6973 67.345 77.0886L67.7357 80.2892C67.7673 80.5483 67.8507 80.7974 67.981 81.0239L68.6826 82.2417L70.8141 81.5762H70.8129Z" fill="#D5D3CF"/>
<path d="M69.2972 79.9901L68.6158 79.5158C68.1834 79.2151 67.8471 78.7949 67.6499 78.3067L66.5664 75.6371C66.4109 75.2533 65.9735 75.0646 65.5866 75.2143C65.2175 75.3565 65.019 75.7566 65.1315 76.1353L66.0481 79.2277C66.1227 79.478 66.2453 79.7095 66.4122 79.9121L67.306 80.9978L69.2985 79.9901H69.2972Z" fill="#D5D3CF"/>
<path d="M66.4096 80.0378C66.373 80.0378 66.3363 80.0227 66.3123 79.9912C66.134 79.7761 66.0038 79.5308 65.9255 79.2628L65.0089 76.1704C64.8787 75.7326 65.1125 75.2608 65.5399 75.0972C65.9899 74.9236 66.502 75.145 66.6827 75.5904L67.5058 77.6449C67.5323 77.7091 67.5007 77.782 67.435 77.8084C67.3705 77.8349 67.2972 77.8034 67.2706 77.738L66.4476 75.6848C66.3186 75.3665 65.952 75.2092 65.6296 75.3325C65.3237 75.4508 65.1568 75.7879 65.2503 76.0999L66.1669 79.1923C66.2365 79.4276 66.3515 79.6427 66.507 79.8315C66.5512 79.8856 66.5437 79.9648 66.4893 80.0088C66.4653 80.0277 66.4375 80.0378 66.4096 80.0378Z" fill="#26045D"/>
<path d="M71.5207 82.218C71.4916 82.218 71.4625 82.208 71.4397 82.1878L70.1376 81.0933C69.7355 80.7008 69.4624 80.2114 69.3436 79.6729L68.7191 76.8623C68.6445 76.5277 68.3107 76.3113 67.9719 76.3805C67.6508 76.4459 67.4308 76.7516 67.47 77.0749L67.7329 79.8767C67.7873 80.4542 68.0667 80.931 68.3613 81.4355L68.3815 81.4695C68.4169 81.5298 68.3967 81.6066 68.336 81.6418C68.2753 81.677 68.1982 81.6569 68.1628 81.5965L68.1426 81.5626C67.8328 81.0329 67.5395 80.5334 67.4801 79.9006L67.2171 77.1026C67.1628 76.6535 67.4712 76.227 67.92 76.1351C68.3941 76.0383 68.8619 76.3415 68.9656 76.8095L69.5902 79.6201C69.6989 80.1107 69.9479 80.5561 70.3082 80.9083L71.6028 81.9966C71.6559 82.0419 71.6622 82.1212 71.618 82.174C71.5927 82.2029 71.5573 82.218 71.5219 82.218H71.5207Z" fill="#26045D"/>
<path d="M73.0145 80.2163C72.9614 80.2163 72.9121 80.1836 72.8944 80.1308L72.4898 78.9431C72.467 78.8777 72.5024 78.806 72.5694 78.7833C72.6352 78.762 72.7072 78.7959 72.73 78.8626L73.1346 80.0503C73.1573 80.1157 73.1219 80.1874 73.0549 80.21C73.041 80.2151 73.0284 80.2163 73.0145 80.2163Z" fill="#26045D"/>
<path d="M76.2119 83.8149L78.8112 93.3865L83.9656 87.4294L87.9176 93.4884L81.6292 101.042C78.7884 104.455 73.2194 102.754 72.7895 98.3434L71.6479 84.8251L76.2106 83.8136L76.2119 83.8149Z" fill="#D5D3CF"/>
<path d="M77.8957 103.013C76.7009 103.013 75.4658 102.611 74.4367 101.85C73.7805 101.365 73.2331 100.485 73.0422 100.044C72.8816 99.6744 72.7957 99.2152 72.7211 98.8101C72.7034 98.712 72.6857 98.6176 72.668 98.5283C72.668 98.5245 72.6667 98.5195 72.6654 98.5157C72.4644 96.3505 72.3039 94.3439 72.1484 92.4026C71.9486 89.9053 71.7603 87.5464 71.4922 84.8842C71.4859 84.815 71.5365 84.7534 71.606 84.7471C71.6755 84.7408 71.7375 84.7911 71.7438 84.8603C72.0118 87.5262 72.2015 89.8864 72.4 92.3837C72.5542 94.3212 72.7147 96.3254 72.9158 98.4868C72.9335 98.5748 72.9512 98.6692 72.9689 98.7648C73.0422 99.1573 73.1244 99.6015 73.2735 99.9449C73.4543 100.363 73.9714 101.193 74.5871 101.648C76.0069 102.696 77.8325 103.036 79.3559 102.534C79.4494 102.488 79.5645 102.442 79.6745 102.398C79.7832 102.355 79.8957 102.31 79.9817 102.267C80.5936 101.919 81.1309 101.473 81.5721 100.948C83.021 99.2052 84.4129 97.5143 85.7593 95.88C86.423 95.0736 87.0881 94.2659 87.7606 93.4506C87.437 92.999 87.1462 92.5297 86.8655 92.0743C86.5292 91.5295 86.2119 91.0149 85.844 90.5343L83.954 87.6382L78.9096 93.4682C78.878 93.5047 78.8287 93.5198 78.7832 93.5085C78.7364 93.4972 78.701 93.4607 78.6909 93.4141C78.6795 93.3613 78.5417 92.8945 78.3508 92.2504C77.6947 90.0299 76.1573 84.8289 75.6074 82.4372C75.5922 82.3693 75.6339 82.3026 75.7022 82.2863C75.7704 82.2699 75.8387 82.3127 75.8539 82.3806C76.4026 84.7635 77.9374 89.9594 78.5935 92.1787C78.7275 92.6316 78.8186 92.9386 78.8729 93.126L83.8731 87.3476C83.8996 87.3174 83.9388 87.301 83.978 87.3036C84.0172 87.3061 84.0538 87.3275 84.0753 87.3602L86.0514 90.3897C86.4218 90.8715 86.7568 91.4163 87.0817 91.9422C87.3763 92.4202 87.6822 92.9147 88.0236 93.3814C88.0577 93.428 88.0552 93.4909 88.0186 93.5349C87.3245 94.3766 86.6392 95.2082 85.9553 96.0385C84.6089 97.674 83.2169 99.3649 81.7681 101.107C81.3066 101.657 80.7466 102.123 80.103 102.489C80.0019 102.539 79.8843 102.586 79.7706 102.631C79.6618 102.674 79.5493 102.719 79.4633 102.762C79.4583 102.764 79.452 102.767 79.4469 102.768C78.9538 102.932 78.4304 103.011 77.8995 103.011L77.8957 103.013Z" fill="#26045D"/>
<path d="M79.7855 97.5365C79.7286 97.5365 79.6767 97.4975 79.6628 97.4397L78.6894 93.415C78.6729 93.3471 78.7147 93.2791 78.7829 93.2628C78.8512 93.2464 78.9195 93.2879 78.9359 93.3559L79.9094 97.3805C79.9258 97.4485 79.8841 97.5164 79.8158 97.5328C79.8057 97.5353 79.7956 97.5365 79.7855 97.5365Z" fill="#26045D"/>
<path d="M79.5273 88.3198L82.846 85.44C84.9346 83.6284 87.6097 82.6307 90.3797 82.6294L102.525 82.6244C105.906 82.6244 109.149 83.9567 111.545 86.3307L114.953 89.7087L108.795 95.8369L107.807 94.8543V99.4577H86.085V94.1284L85.2506 94.8518L79.5273 88.3185V88.3198Z" fill="#4B2BA5"/>
<path d="M107.807 99.5835H86.0836C86.0141 99.5835 85.9572 99.5269 85.9572 99.4577V94.4052L85.3327 94.9474C85.2796 94.9927 85.1999 94.9877 85.1544 94.9349L79.4311 88.4016C79.3856 88.3487 79.3907 88.2695 79.4438 88.2242L82.7624 85.3444C84.8737 83.5126 87.5792 82.5036 90.3795 82.5023L102.525 82.4973C105.963 82.4973 109.198 83.8271 111.633 86.2414L115.041 89.6194C115.065 89.6433 115.078 89.6747 115.078 89.7087C115.078 89.7427 115.064 89.7741 115.041 89.798L108.883 95.9262C108.835 95.974 108.752 95.974 108.705 95.9262L107.934 95.1588V99.4577C107.934 99.5269 107.877 99.5835 107.807 99.5835ZM86.21 99.3319H107.681V94.8543C107.681 94.804 107.711 94.7575 107.759 94.7386C107.807 94.7197 107.86 94.7298 107.897 94.7663L108.795 95.6595L114.775 89.7087L111.456 86.4201C109.068 84.0536 105.897 82.7502 102.527 82.7502L90.3808 82.7552C87.6412 82.7552 84.9951 83.7441 82.9306 85.5356L79.7067 88.3324L85.2631 94.6757L86.0014 94.0353C86.0381 94.0026 86.0912 93.9951 86.1367 94.0152C86.1822 94.0353 86.2113 94.0806 86.2113 94.1297V99.3332L86.21 99.3319Z" fill="#26045D"/>
<path d="M85.2743 95.5767C85.2629 95.5767 85.2515 95.5755 85.2401 95.5717C85.1731 95.5528 85.1327 95.4836 85.1517 95.417L87.3401 87.4733C87.3591 87.4067 87.4286 87.3664 87.4956 87.3853C87.5626 87.4041 87.603 87.4733 87.5841 87.54L85.3957 95.4836C85.3805 95.539 85.3286 95.5767 85.2743 95.5767Z" fill="#26045D"/>
<path d="M108.794 95.9626C108.761 95.9626 108.729 95.95 108.704 95.9261L102.772 90.0231C102.723 89.9741 102.723 89.8948 102.772 89.8457C102.821 89.7967 102.901 89.7967 102.95 89.8457L108.882 95.7487C108.932 95.7978 108.932 95.877 108.882 95.9261C108.857 95.9513 108.825 95.9626 108.792 95.9626H108.794Z" fill="#26045D"/>
<path d="M91.7888 96.545H93.5423C94.3325 96.545 95.1125 96.7236 95.823 97.0671L99.2074 98.7039H91.7888C91.2022 98.7039 90.7268 98.2308 90.7268 97.6471V97.6018C90.7268 97.018 91.2022 96.545 91.7888 96.545Z" fill="#D5D3CF"/>
<path d="M99.7565 98.8299H91.7892C91.1343 98.8299 90.6008 98.299 90.6008 97.6473V97.602C90.6008 96.9503 91.1343 96.4194 91.7892 96.4194H93.5428C94.3468 96.4194 95.1547 96.6043 95.8791 96.9541L99.7578 98.8299H99.7565ZM91.7892 96.6698C91.2734 96.6698 90.8537 97.0875 90.8537 97.6008V97.646C90.8537 98.1594 91.2734 98.577 91.7892 98.577H98.6579L95.7678 97.1793C95.0788 96.8459 94.3089 96.6698 93.5428 96.6698H91.7892Z" fill="#26045D"/>
<path d="M96.8438 106.261H85.4364L81.2568 93.0489H92.6655L96.8438 106.261Z" fill="#926CFF"/>
<path d="M96.8443 106.387H85.4357C85.38 106.387 85.332 106.352 85.3156 106.299L81.1359 93.0862C81.1233 93.0485 81.1309 93.007 81.1549 92.9742C81.1789 92.9415 81.2169 92.9227 81.2573 92.9227H92.6659C92.7216 92.9227 92.7696 92.9579 92.786 93.0107L96.9657 106.223C96.9783 106.261 96.9707 106.303 96.9467 106.335C96.9227 106.368 96.8847 106.387 96.8443 106.387ZM85.5292 106.135H96.6724L92.5724 93.1743H81.4292L85.5292 106.135Z" fill="#26045D"/>
<path d="M91.0091 94.0554L90.3138 91.8563H82.6145L83.3111 94.0554H91.0091Z" fill="white"/>
<path d="M91.0098 94.1812H83.3117C83.2561 94.1812 83.2081 94.146 83.1916 94.0931L82.4963 91.8927C82.4836 91.855 82.4912 91.8135 82.5153 91.7808C82.5393 91.7481 82.5772 91.7292 82.6176 91.7292H90.3157C90.3713 91.7292 90.4194 91.7644 90.4358 91.8172L91.1311 94.0177C91.1438 94.0554 91.1362 94.0969 91.1122 94.1296C91.0882 94.1623 91.0502 94.1812 91.0098 94.1812ZM83.404 93.9296H90.8378L90.2209 91.9808H82.7871L83.404 93.9296Z" fill="#26045D"/>
<path d="M92.4799 97.2557L90.3484 96.4342C89.9628 96.2857 89.5469 96.5688 89.5469 96.9802V97.0368C89.5469 97.2784 89.6961 97.496 89.9236 97.5828L91.8794 98.3364C92.1082 98.4245 92.351 98.4698 92.5963 98.4698H94.8429V97.2545H92.4799V97.2557Z" fill="#D5D3CF"/>
<path d="M91.5295 99.5011L89.8506 98.8544C89.465 98.706 89.0491 98.989 89.0491 99.4004V99.4571C89.0491 99.6986 89.1983 99.9163 89.4258 100.003L91.3816 100.757C91.6104 100.845 91.8532 100.89 92.0984 100.89H96.0631V99.6747H92.4676C92.1465 99.6747 91.8292 99.6156 91.5295 99.4998V99.5011Z" fill="#D5D3CF"/>
<path d="M91.8611 98.3283L89.6284 97.469C89.239 97.3193 88.8206 97.6049 88.8206 98.0201V98.0666C88.8206 98.3107 88.971 98.5296 89.1998 98.6177L91.5412 99.5185C91.8181 99.6254 92.1127 99.6795 92.4098 99.6795H96.0647V98.4642H92.5956C92.344 98.4642 92.095 98.4176 91.8611 98.3283Z" fill="#D5D3CF"/>
<path d="M92.0998 100.888C91.852 100.888 91.6054 100.842 91.3741 100.753L90.2451 100.319C89.8595 100.171 89.4448 100.454 89.4448 100.865V100.924C89.4448 101.166 89.594 101.382 89.8203 101.47L91.2249 102.011C91.3855 102.073 91.5561 102.104 91.7281 102.104H96.0619V100.889H92.0985L92.0998 100.888Z" fill="#D5D3CF"/>
<path d="M96.1763 100.575L92.2407 99.0592V101.881L95.2989 103.06C95.878 103.283 96.4949 103.397 97.1157 103.397H98.5607V100.575H96.1751H96.1763Z" fill="#D5D3CF"/>
<path d="M94.9591 97.2513H93.5962L96.8162 103.396H98.8757V98.5534L97.1551 97.7432C96.4686 97.4199 95.7176 97.2513 94.9578 97.2513H94.9591Z" fill="#D5D3CF"/>
<path d="M115.315 102.844L97.9875 103.397V98.5544L110.731 96.5465L105.09 91.0435L111.422 87.5096L118.591 94.2429C121.83 97.285 119.766 102.705 115.315 102.847V102.844Z" fill="#D5D3CF"/>
<path d="M97.9898 103.523C97.9215 103.523 97.8659 103.469 97.8634 103.401C97.8608 103.332 97.9152 103.274 97.986 103.271L115.367 102.718C117.364 102.654 119.046 101.46 119.754 99.599C120.462 97.7383 119.999 95.7354 118.545 94.3703L111.405 87.6647L105.302 91.0716L110.823 96.4575C110.857 96.4902 110.87 96.5406 110.855 96.5858C110.841 96.6311 110.802 96.6638 110.754 96.6714L98.6712 98.5762C98.603 98.5875 98.5372 98.5397 98.5271 98.4717C98.5157 98.4025 98.5638 98.3384 98.632 98.3283L110.465 96.4638L105.004 91.1358C104.976 91.1081 104.962 91.0691 104.967 91.0288C104.972 90.9898 104.996 90.9546 105.03 90.9357L111.362 87.4017C111.41 87.3753 111.471 87.3816 111.511 87.4194L118.72 94.1892C120.249 95.6259 120.736 97.7332 119.992 99.6908C119.247 101.648 117.478 102.905 115.376 102.972L97.9949 103.525C97.9949 103.525 97.9923 103.525 97.9911 103.525L97.9898 103.523Z" fill="#26045D"/>
<path d="M94.6758 99.8052H92.4102C92.0967 99.8052 91.7882 99.7486 91.4962 99.6354L89.1548 98.7346C88.8792 98.6289 88.6946 98.3597 88.6946 98.0665V98.02C88.6946 97.7835 88.8122 97.5621 89.0081 97.4287C89.2041 97.2953 89.4531 97.2664 89.6756 97.352L91.9083 98.2112C92.1296 98.2968 92.3609 98.3396 92.5973 98.3396H94.6783C94.7478 98.3396 94.8047 98.3962 94.8047 98.4654C94.8047 98.5346 94.7478 98.5912 94.6783 98.5912H92.5973C92.3293 98.5912 92.0663 98.5421 91.8173 98.4465L89.5846 97.5872C89.438 97.5306 89.2812 97.5495 89.151 97.6375C89.022 97.7256 88.9474 97.8652 88.9474 98.0213V98.0678C88.9474 98.259 89.0675 98.4327 89.2458 98.5018L91.5872 99.4026C91.8514 99.5046 92.1283 99.5561 92.4102 99.5561H94.6758C94.7453 99.5561 94.8022 99.6127 94.8022 99.6819C94.8022 99.7511 94.7453 99.8078 94.6758 99.8078V99.8052Z" fill="#26045D"/>
<path d="M94.676 102.229H91.7303C91.5419 102.229 91.3573 102.195 91.1803 102.127L89.7757 101.586C89.5027 101.481 89.3193 101.215 89.3193 100.923V100.864C89.3193 100.63 89.4357 100.41 89.6304 100.278C89.8251 100.146 90.0729 100.117 90.2916 100.201L91.4205 100.636C91.638 100.721 91.8668 100.763 92.1007 100.763H94.676C94.7455 100.763 94.8024 100.82 94.8024 100.889C94.8024 100.958 94.7455 101.015 94.676 101.015H92.1007C91.8352 101.015 91.576 100.967 91.3295 100.872L90.2005 100.436C90.0564 100.381 89.9009 100.399 89.7732 100.485C89.6455 100.572 89.5722 100.711 89.5722 100.864V100.923C89.5722 101.112 89.691 101.283 89.8668 101.351L91.2714 101.892C91.418 101.949 91.5722 101.978 91.729 101.978H94.6747C94.7443 101.978 94.8012 102.034 94.8012 102.103C94.8012 102.173 94.7443 102.229 94.6747 102.229H94.676Z" fill="#26045D"/>
<path d="M98.6494 98.5698C98.6305 98.5698 98.6115 98.5661 98.5938 98.5573L96.1803 97.3809C96.1171 97.3508 96.0918 97.2753 96.1222 97.2124C96.1525 97.1495 96.2284 97.1243 96.2916 97.1545L98.705 98.3308C98.7682 98.361 98.7936 98.4365 98.7632 98.4994C98.7417 98.5434 98.6962 98.5698 98.6494 98.5698Z" fill="#26045D"/>
<path d="M97.9894 103.523H96.8174C96.7972 103.523 96.7782 103.518 96.7605 103.509C96.2422 103.474 95.7352 103.362 95.2535 103.176L92.7958 102.228H91.7301C91.5417 102.228 91.3571 102.194 91.1801 102.127L89.7755 101.586C89.5024 101.48 89.3191 101.214 89.3191 100.923V100.863C89.3191 100.631 89.4279 100.421 89.6188 100.286C89.6415 100.27 89.6668 100.254 89.6908 100.241L89.3811 100.121C89.108 100.015 88.9247 99.7487 88.9247 99.4569V99.4002C88.9247 99.1914 89.0157 98.9939 89.1763 98.8593C89.2104 98.8303 89.2458 98.8052 89.2837 98.7838L89.1548 98.7347C88.8792 98.629 88.6946 98.3598 88.6946 98.0654V98.0189C88.6946 97.7823 88.8122 97.5609 89.0081 97.4275C89.1472 97.3332 89.3128 97.2904 89.4759 97.3043C89.4417 97.2212 89.4228 97.1306 89.4228 97.0375V96.9797C89.4228 96.7444 89.5391 96.5255 89.7338 96.3921C89.9285 96.2588 90.1763 96.2311 90.3963 96.3154L92.5051 97.1281H93.5683C93.5771 97.1256 93.5872 97.1243 93.5974 97.1243H94.677C94.7466 97.1243 94.8035 97.181 94.8035 97.2502C94.8035 97.3194 94.7466 97.376 94.677 97.376H93.629C93.6201 97.3785 93.61 97.3797 93.5999 97.3797H92.4823C92.4671 97.3797 92.4507 97.3772 92.4368 97.3709L90.3052 96.5494C90.1611 96.494 90.0044 96.5117 89.8767 96.5985C89.749 96.6853 89.6756 96.8237 89.6756 96.9784V97.0363C89.6756 97.2174 89.7844 97.3823 89.9525 97.4565C90.0157 97.4842 90.0448 97.5559 90.0182 97.62C89.9917 97.6829 89.9196 97.7144 89.8564 97.6892L89.5846 97.5848C89.438 97.5282 89.2799 97.5471 89.151 97.6351C89.022 97.7232 88.9474 97.8629 88.9474 98.0189V98.0654C88.9474 98.2566 89.0675 98.4303 89.2458 98.4994L89.7806 98.7045C89.8413 98.7272 89.8741 98.7926 89.8564 98.8555C89.8387 98.9171 89.7793 98.9561 89.7136 98.9461C89.5796 98.9247 89.4443 98.9624 89.3394 99.0505C89.2344 99.1386 89.1775 99.2631 89.1775 99.4002V99.4569C89.1775 99.6456 89.2964 99.8179 89.4734 99.8859L90.2711 100.193C90.3356 100.218 90.3672 100.288 90.3444 100.354C90.3204 100.418 90.2496 100.452 90.1839 100.429C90.041 100.38 89.8893 100.403 89.7654 100.49C89.6428 100.577 89.572 100.712 89.572 100.862V100.921C89.572 101.113 89.6883 101.28 89.8665 101.349L91.2711 101.89C91.4178 101.947 91.572 101.976 91.7288 101.976H92.8186C92.8338 101.976 92.8502 101.978 92.8641 101.984L95.3446 102.941C95.8149 103.122 96.3104 103.229 96.8187 103.26C96.8338 103.26 96.8478 103.264 96.8617 103.27H97.9894C98.0589 103.27 98.1158 103.327 98.1158 103.396C98.1158 103.465 98.0589 103.522 97.9894 103.522V103.523Z" fill="#26045D"/>
<path d="M109.011 96.943C108.949 96.943 108.896 96.8989 108.886 96.836C108.876 96.7668 108.923 96.7027 108.991 96.6926L113.99 95.9201C114.058 95.9101 114.124 95.9566 114.134 96.0245C114.144 96.0925 114.097 96.1579 114.028 96.168L109.029 96.9404C109.023 96.9404 109.016 96.9417 109.01 96.9417L109.011 96.943Z" fill="#26045D"/>
<path d="M108.86 95.7732L114.954 89.7092L111.545 86.3312L103.811 90.6641L108.86 95.7732Z" fill="#4B2BA5"/>
<path d="M45 19.2566L44.9917 18.8539C44.9723 17.9203 44.7829 17.0064 44.429 16.1377L44.2759 15.7617L38.621 17.8112L43.1997 14.0713L42.9199 13.7669C42.2742 13.0641 41.5113 12.4772 40.6522 12.0226L40.2799 11.8255L37.3185 16.8014L38.2954 11.1702L37.8738 11.1052C37.4206 11.0354 36.9578 11 36.4951 11C35.9785 11 35.4595 11.0447 34.9524 11.1328L34.5324 11.2059L35.6298 16.8176L32.5645 11.8974L32.1962 12.1015C31.3469 12.5718 30.5967 13.1725 29.966 13.8866L29.6927 14.1963L34.3479 17.8516L28.6506 15.9087L28.5055 16.2873C28.17 17.1618 28 18.0786 28 19.0122C28 19.1177 28.0021 19.2244 28.0068 19.3297L28.0237 19.7321L34.0749 19.5065L28.4661 21.6619L28.6273 22.0348C28.9996 22.8965 29.5242 23.6843 30.1859 24.3763L30.4718 24.6756L34.9749 20.8466L32.1132 25.8878L32.4898 26.078C33.3643 26.5193 34.3055 26.8104 35.287 26.9429L35.7098 27L36.5698 21.3366L37.7877 26.9417L38.2062 26.8608C39.1769 26.6732 40.0975 26.33 40.9425 25.8402L41.3062 25.6295L38.1312 20.7579L42.8676 24.3285L43.1342 24.0139C43.7525 23.2847 44.2267 22.4677 44.544 21.5854L44.6811 21.2038L38.9408 19.3688L44.9997 19.2572L45 19.2566Z" fill="#82EDA8"/>
<path d="M114.266 27.5298L115.481 32.5733C115.524 32.7511 115.468 32.9384 115.334 33.0644L111.869 36.3369C111.581 36.6097 111.103 36.4692 111.013 36.0839L109.961 31.5961C109.919 31.4163 109.783 31.2735 109.605 31.2221L104.471 29.7443C104.293 29.693 104.157 29.5502 104.114 29.3704L102.926 24.3034C102.884 24.1242 102.749 23.9819 102.571 23.9298L98.0158 22.6044C97.6351 22.4937 97.5195 22.0147 97.808 21.7426L101.189 18.5534C101.32 18.4291 101.509 18.3825 101.683 18.431L106.872 19.8718C107.051 19.9217 107.189 20.064 107.233 20.2442L108.447 25.2836C108.489 25.4608 108.624 25.6014 108.799 25.6535L113.912 27.1599C114.088 27.2119 114.223 27.3525 114.265 27.5299L114.266 27.5298Z" fill="#F2C94C"/>
</g>
<defs>
<linearGradient id="paint0_linear_8327_190443" x1="66.8313" y1="2.73782" x2="66.8313" y2="123.232" gradientUnits="userSpaceOnUse">
<stop stop-color="#7747FF"/>
<stop offset="1" stop-color="#926CFF"/>
</linearGradient>
<linearGradient id="paint1_linear_8327_190443" x1="42.4868" y1="98.5016" x2="130.275" y2="100.44" gradientUnits="userSpaceOnUse">
<stop stop-color="white"/>
<stop offset="1" stop-color="white" stop-opacity="0"/>
</linearGradient>
<linearGradient id="paint2_linear_8327_190443" x1="107.76" y1="20.7009" x2="20.7229" y2="9.0793" gradientUnits="userSpaceOnUse">
<stop stop-color="white"/>
<stop offset="1" stop-color="white" stop-opacity="0"/>
</linearGradient>
<linearGradient id="paint3_linear_8327_190443" x1="78.3097" y1="87.3392" x2="0.176087" y2="76.7208" gradientUnits="userSpaceOnUse">
<stop stop-color="white"/>
<stop offset="1" stop-color="white" stop-opacity="0"/>
</linearGradient>
<linearGradient id="paint4_linear_8327_190443" x1="66.3286" y1="60.9446" x2="66.3286" y2="67.9333" gradientUnits="userSpaceOnUse">
<stop stop-color="#EEEBE4"/>
<stop offset="1" stop-color="#D5D3CF" stop-opacity="0"/>
</linearGradient>
<linearGradient id="paint5_linear_8327_190443" x1="72.0459" y1="56.4972" x2="72.0459" y2="67.9332" gradientUnits="userSpaceOnUse">
<stop stop-color="#EEEBE4"/>
<stop offset="1" stop-color="#D5D3CF" stop-opacity="0"/>
</linearGradient>
<linearGradient id="paint6_linear_8327_190443" x1="77.7646" y1="58.721" x2="77.7646" y2="67.9333" gradientUnits="userSpaceOnUse">
<stop stop-color="#EEEBE4"/>
<stop offset="1" stop-color="#D5D3CF" stop-opacity="0"/>
</linearGradient>
<linearGradient id="paint7_linear_8327_190443" x1="83.4831" y1="55.2267" x2="83.4831" y2="67.9334" gradientUnits="userSpaceOnUse">
<stop stop-color="#EEEBE4"/>
<stop offset="1" stop-color="#D5D3CF" stop-opacity="0"/>
</linearGradient>
<linearGradient id="paint8_linear_8327_190443" x1="89.2006" y1="52.3677" x2="89.2006" y2="67.9334" gradientUnits="userSpaceOnUse">
<stop stop-color="#EEEBE4"/>
<stop offset="1" stop-color="#D5D3CF" stop-opacity="0"/>
</linearGradient>
<linearGradient id="paint9_linear_8327_190443" x1="94.9182" y1="51.7323" x2="94.9182" y2="67.9333" gradientUnits="userSpaceOnUse">
<stop stop-color="#EEEBE4"/>
<stop offset="1" stop-color="#D5D3CF" stop-opacity="0"/>
</linearGradient>
<linearGradient id="paint10_linear_8327_190443" x1="94.8899" y1="134.814" x2="111.543" y2="117.715" gradientUnits="userSpaceOnUse">
<stop stop-color="#D295FD"/>
<stop offset="1" stop-color="#60D5B1"/>
</linearGradient>
<linearGradient id="paint11_linear_8327_190443" x1="106.811" y1="134.519" x2="122.902" y2="116.388" gradientUnits="userSpaceOnUse">
<stop stop-color="#D295FD"/>
<stop offset="1" stop-color="#60D5B1"/>
</linearGradient>
<clipPath id="clip0_8327_190443">
<rect width="131" height="131" fill="white"/>
</clipPath>
<clipPath id="clip1_8327_190443">
<rect width="61" height="61" fill="white" transform="translate(-9 63)"/>
</clipPath>
</defs>
</svg>
